:FULLY-SPECIFIED
:FORCE-ALL-JOINTS-BE-3DOF
:DEGREES
65
root 9.07853 16.3022 -27.3382 5.37092 -11.5866 0.416413
lfemur -26.8396 7.52966 -23.6837
ltibia 32.2563 0 0
lfoot -10.052 7.72486 0
ltoes -3.89347 0 0
rfemur -4.32551 -0.709112 15.9971
rtibia 56.6598 0 0
rfoot 6.39141 -10.104 0
rtoes -2.72725 0 0
lowerback -5.14209 0.382577 -2.11161
upperback -2.15264 0.576745 2.56736
thorax 0.619937 0.306623 3.86398
lowerneck -22.4878 -4.12803 -11.7486
upperneck 17.6693 -4.76446 12.81
head 9.93317 -1.55792 5.80621
lclavicle -4.4147e-15 4.77083e-15 0
lhumerus -38.7211 -6.07145 88.5868
lradius 21.0864 0 0
lwrist -3.5253 0 0
lhand 1.41917 -17.294 0
lfingers 7.12502 0 0
lthumb 26.9484 10.7981 0
rclavicle -4.4147e-15 4.77083e-15 0
rhumerus -43.0345 13.3197 -90.8688
rradius 38.2797 0 0
rwrist -19.7761 0 0
rhand -29.7273 -25.6812 0
rfingers 7.12502 0 0
rthumb -3.05412 -55.6391 0
66
root 9.09899 16.3281 -27.2193 5.31484 -11.4603 0.497536
lfemur -26.015 7.31043 -23.8679
ltibia 31.6549 0 0
lfoot -10.1356 7.87838 0
ltoes -3.99671 0 0
rfemur -5.5633 -0.849154 16.132
rtibia 58.1401 0 0
rfoot 5.13313 -10.3918 0
rtoes -2.67216 0 0
lowerback -5.13183 0.290007 -2.1524
upperback -2.08779 0.454642 2.57154
thorax 0.690378 0.243708 3.88523
lowerneck -22.5272 -4.10038 -11.6456
upperneck 17.6651 -4.72601 12.6856
head 9.92661 -1.54548 5.74791
lclavicle -1.04942e-14 1.07344e-14 0
lhumerus -38.1004 -6.5242 88.5854
lradius 21.2556 0 0
lwrist -3.28699 0 0
lhand 0.963381 -17.3289 0
lfingers 7.12502 0 0
lthumb 26.5124 10.8321 0
rclavicle -1.04942e-14 1.07344e-14 0
rhumerus -42.9107 13.1213 -90.6623
rradius 38.2516 0 0
rwrist -19.819 0 0
rhand -29.7764 -25.6756 0
rfingers 7.12502 0 0
rthumb -3.10154 -55.6327 0
67
root 9.11944 16.354 -27.1003 5.25876 -11.3341 0.578659
lfemur -25.1905 7.09119 -24.0521
ltibia 31.0535 0 0
lfoot -10.2192 8.0319 0
ltoes -4.09995 0 0
rfemur -6.8011 -0.989197 16.2669
rtibia 59.6204 0 0
rfoot 3.87486 -10.6797 0
rtoes -2.61707 0 0
lowerback -5.12157 0.197437 -2.19318
upperback -2.02295 0.332538 2.57571
thorax 0.76082 0.180792 3.90648
lowerneck -22.5665 -4.07274 -11.5427
upperneck 17.6609 -4.68756 12.5612
head 9.92005 -1.53304 5.68962
lclavicle -1.65737e-14 1.66979e-14 0
lhumerus -37.4797 -6.97695 88.584
lradius 21.4248 0 0
lwrist -3.04867 0 0
lhand 0.507587 -17.3638 0
lfingers 7.12502 0 0
lthumb 26.0765 10.8662 0
rclavicle -1.65737e-14 1.66979e-14 0
rhumerus -42.7869 12.923 -90.4558
rradius 38.2235 0 0
rwrist -19.862 0 0
rhand -29.8255 -25.6699 0
rfingers 7.12502 0 0
rthumb -3.14896 -55.6264 0
68
root 9.13452 16.3658 -26.9917 5.27012 -11.0427 0.716608
lfemur -24.6231 6.79769 -24.2927
ltibia 30.6618 0 0
lfoot -10.3921 8.08701 0
ltoes -4.2156 0 0
rfemur -8.03882 -1.00896 16.4339
rtibia 60.293 0 0
rfoot 2.34695 -10.702 0
rtoes -4.09744 0 0
lowerback -5.13524 0.0794955 -2.32454
upperback -2.03323 0.18198 2.57669
thorax 0.771474 0.105875 3.97336
lowerneck -22.5275 -4.04237 -11.5395
upperneck 17.7905 -4.66136 12.5586
head 9.95496 -1.52222 5.69669
lclavicle -1.99178e-14 1.45775e-14 0
lhumerus -36.8126 -7.46603 88.5535
lradius 21.6574 0 0
lwrist -2.84343 0 0
lhand 0.336461 -17.3173 0
lfingers 7.12502 0 0
lthumb 25.9126 10.9362 0
rclavicle -1.99178e-14 1.45775e-14 0
rhumerus -42.8743 12.9079 -90.3384
rradius 38.4073 0 0
rwrist -20.0477 0 0
rhand -29.9101 -25.1527 0
rfingers 7.12502 0 0
rthumb -3.23064 -55.1078 0
69
root 9.1496 16.3776 -26.8831 5.28148 -10.7512 0.854556
lfemur -24.0557 6.50419 -24.5333
ltibia 30.27 0 0
lfoot -10.565 8.14211 0
ltoes -4.33125 0 0
rfemur -9.27653 -1.02872 16.601
rtibia 60.9656 0 0
rfoot 0.819047 -10.7244 0
rtoes -5.57781 0 0
lowerback -5.1489 -0.038446 -2.4559
upperback -2.04351 0.031422 2.57767
thorax 0.782127 0.0309573 4.04024
lowerneck -22.4885 -4.01201 -11.5363
upperneck 17.9201 -4.63516 12.556
head 9.98987 -1.5114 5.70376
lclavicle -2.3262e-14 1.24572e-14 0
lhumerus -36.1456 -7.95512 88.523
lradius 21.89 0 0
lwrist -2.6382 0 0
lhand 0.165335 -17.2708 0
lfingers 7.12502 0 0
lthumb 25.7487 11.0062 0
rclavicle -2.3262e-14 1.24572e-14 0
rhumerus -42.9616 12.8927 -90.2209
rradius 38.591 0 0
rwrist -20.2333 0 0
rhand -29.9947 -24.6354 0
rfingers 7.12502 0 0
rthumb -3.31232 -54.5893 0
70
root 9.16468 16.3894 -26.7745 5.29284 -10.4598 0.992505
lfemur -23.4883 6.21069 -24.7739
ltibia 29.8783 0 0
lfoot -10.738 8.19722 0
ltoes -4.4469 0 0
rfemur -10.5143 -1.04848 16.768
rtibia 61.6382 0 0
rfoot -0.70886 -10.7467 0
rtoes -7.05818 0 0
lowerback -5.16257 -0.156388 -2.58726
upperback -2.0538 -0.119136 2.57865
thorax 0.79278 -0.04396 4.10712
lowerneck -22.4495 -3.98164 -11.533
upperneck 18.0496 -4.60896 12.5534
head 10.0248 -1.50057 5.71083
lclavicle -2.66061e-14 1.03368e-14 0
lhumerus -35.4785 -8.4442 88.4925
lradius 22.1227 0 0
lwrist -2.43297 0 0
lhand -0.0057915 -17.2244 0
lfingers 7.12502 0 0
lthumb 25.5847 11.0762 0
rclavicle -2.66061e-14 1.03368e-14 0
rhumerus -43.049 12.8776 -90.1034
rradius 38.7748 0 0
rwrist -20.419 0 0
rhand -30.0793 -24.1181 0
rfingers 7.12502 0 0
rthumb -3.394 -54.0707 0
71
root 9.17976 16.4011 -26.6659 5.30421 -10.1683 1.13045
lfemur -22.9209 5.91719 -25.0145
ltibia 29.4865 0 0
lfoot -10.9109 8.25233 0
ltoes -4.56255 0 0
rfemur -11.752 -1.06825 16.935
rtibia 62.3109 0 0
rfoot -2.23677 -10.769 0
rtoes -8.53856 0 0
lowerback -5.17623 -0.274329 -2.71863
upperback -2.06408 -0.269694 2.57964
thorax 0.803434 -0.118877 4.17401
lowerneck -22.4105 -3.95127 -11.5298
upperneck 18.1792 -4.58277 12.5509
head 10.0597 -1.48975 5.71791
lclavicle -2.99502e-14 8.21643e-15 0
lhumerus -34.8114 -8.93328 88.4621
lradius 22.3553 0 0
lwrist -2.22773 0 0
lhand -0.176918 -17.1779 0
lfingers 7.12502 0 0
lthumb 25.4208 11.1463 0
rclavicle -2.99502e-14 8.21643e-15 0
rhumerus -43.1363 12.8625 -89.986
rradius 38.9586 0 0
rwrist -20.6047 0 0
rhand -30.1638 -23.6009 0
rfingers 7.12502 0 0
rthumb -3.47568 -53.5521 0
